<svg width="46" height="46" viewBox="0 0 46 46" fill="none" xmlns="http://www.w3.org/2000/svg">
<g clip-path="url(#clip0_64:204)">
<path d="M38.5825 20.0773L37.9631 18.914L36.7864 19.5076C35.8865 19.9615 34.9138 20.188 33.899 20.1828C30.4251 20.1627 27.5988 17.2782 27.5988 13.753V11.4876C27.5988 7.81329 26.3402 4.20526 24.0548 1.32822L23 0L9.4686 17.0351C6.87594 20.1309 5.4164 24.0589 5.35828 28.098C5.29047 32.8138 7.1014 37.2895 10.4576 40.7003C13.8122 44.1096 18.2551 45.9916 22.9681 46H22.9831H22.9847H23.0001H23.0003C27.7072 45.9998 32.133 44.1693 35.4648 40.8434C38.8044 37.5097 40.6436 33.0751 40.6436 28.3563C40.6435 25.4723 39.9309 22.6094 38.5825 20.0773ZM27.7825 35.83C28.0425 35.8306 28.3062 35.811 28.5644 35.7693C28.7346 36.3197 28.8202 36.8936 28.8202 37.4851C28.8202 39.0417 28.2136 40.5046 27.1118 41.6043C26.0126 42.7015 24.5527 43.3054 22.9999 43.3054C22.9961 43.3054 22.9923 43.3054 22.9885 43.3054C21.4387 43.3024 19.9747 42.6804 18.8661 41.5537C17.7566 40.4262 17.1578 38.9507 17.1802 37.3993C17.1993 36.0654 17.6821 34.7681 18.5395 33.7465L22.8031 28.3797C22.9866 28.9201 23.0827 29.4903 23.0827 30.0656V31.062C23.0828 33.676 25.1911 35.8149 27.7825 35.83ZM33.5609 38.9364C32.68 39.8158 31.7088 40.5718 30.6682 41.1958C31.222 40.0537 31.5149 38.7921 31.5149 37.4851C31.5149 36.0933 31.1708 34.7114 30.5199 33.4889L29.9005 32.3256L28.7238 32.9192C28.4358 33.0644 28.125 33.1363 27.7981 33.1353C26.684 33.1288 25.7775 32.1987 25.7775 31.0619V30.0655C25.7775 28.2796 25.1658 26.526 24.055 25.1276L23 23.7994L16.4634 32.0285C15.216 33.5216 14.5139 35.4144 14.4859 37.3604C14.4667 38.6904 14.7571 39.9801 15.324 41.151C14.2654 40.5057 13.2761 39.7226 12.3783 38.8103C9.53148 35.9171 7.99532 32.1264 8.05272 28.1367C8.10203 24.7099 9.34213 21.3774 11.5446 18.7532L11.5563 18.7393L22.9295 4.42111C24.2114 6.54211 24.9042 8.99662 24.9042 11.4876V13.753C24.9042 18.7555 28.9323 22.8488 33.8834 22.8775C34.8522 22.8848 35.8135 22.7321 36.7287 22.4358C37.5295 24.2948 37.9488 26.3191 37.9488 28.3564C37.9488 32.3545 36.3906 36.1118 33.5609 38.9364Z" fill="white"/>
</g>
<defs>
<clipPath id="clip0_64:204">
<rect width="46" height="46" fill="white"/>
</clipPath>
</defs>
</svg>
